<mxfile host="app.diagrams.net" agent="Mozilla/5.0 (Windows NT 10.0; Win64; x64) AppleWebKit/537.36 (KHTML, like Gecko) Chrome/129.0.0.0 Safari/537.36 Edg/129.0.0.0" version="24.7.17">
  <diagram name="Trang-1" id="cpp-2RmHaUpNNzkgnVg9">
    <mxGraphModel dx="361" dy="396" grid="1" gridSize="10" guides="1" tooltips="1" connect="1" arrows="1" fold="1" page="1" pageScale="1" pageWidth="827" pageHeight="1169" math="1" shadow="0">
      <root>
        <mxCell id="0" />
        <mxCell id="1" parent="0" />
        <mxCell id="7tWCwilZD6dlTuX6nUod-1" value="&lt;font style=&quot;font-size: 36px;&quot;&gt;+&lt;/font&gt;" style="ellipse;whiteSpace=wrap;html=1;aspect=fixed;" parent="1" vertex="1">
          <mxGeometry x="510" y="170" width="80" height="80" as="geometry" />
        </mxCell>
        <mxCell id="7tWCwilZD6dlTuX6nUod-8" style="edgeStyle=orthogonalEdgeStyle;rounded=0;orthogonalLoop=1;jettySize=auto;html=1;" parent="1" source="7tWCwilZD6dlTuX6nUod-2" edge="1">
          <mxGeometry relative="1" as="geometry">
            <mxPoint x="350" y="320" as="targetPoint" />
          </mxGeometry>
        </mxCell>
        <mxCell id="7tWCwilZD6dlTuX6nUod-2" value="&lt;svg xmlns=&quot;http://www.w3.org/2000/svg&quot; width=&quot;3.284ex&quot; height=&quot;2.025ex&quot; role=&quot;img&quot; viewBox=&quot;0 -883.9 1451.7 894.9&quot; xmlns:xlink=&quot;http://www.w3.org/1999/xlink&quot; style=&quot;vertical-align: -0.025ex; font-size: 23px;&quot;&gt;&lt;defs style=&quot;font-size: 23px;&quot;&gt;&lt;path id=&quot;MJX-2-TEX-I-1D467&quot; d=&quot;M347 338Q337 338 294 349T231 360Q211 360 197 356T174 346T162 335T155 324L153 320Q150 317 138 317Q117 317 117 325Q117 330 120 339Q133 378 163 406T229 440Q241 442 246 442Q271 442 291 425T329 392T367 375Q389 375 411 408T434 441Q435 442 449 442H462Q468 436 468 434Q468 430 463 420T449 399T432 377T418 358L411 349Q368 298 275 214T160 106L148 94L163 93Q185 93 227 82T290 71Q328 71 360 90T402 140Q406 149 409 151T424 153Q443 153 443 143Q443 138 442 134Q425 72 376 31T278 -11Q252 -11 232 6T193 40T155 57Q111 57 76 -3Q70 -11 59 -11H54H41Q35 -5 35 -2Q35 13 93 84Q132 129 225 214T340 322Q352 338 347 338Z&quot; style=&quot;font-size: 23px;&quot;&gt;&lt;/path&gt;&lt;path id=&quot;MJX-2-TEX-N-2212&quot; d=&quot;M84 237T84 250T98 270H679Q694 262 694 250T679 230H98Q84 237 84 250Z&quot; style=&quot;font-size: 23px;&quot;&gt;&lt;/path&gt;&lt;path id=&quot;MJX-2-TEX-N-31&quot; d=&quot;M213 578L200 573Q186 568 160 563T102 556H83V602H102Q149 604 189 617T245 641T273 663Q275 666 285 666Q294 666 302 660V361L303 61Q310 54 315 52T339 48T401 46H427V0H416Q395 3 257 3Q121 3 100 0H88V46H114Q136 46 152 46T177 47T193 50T201 52T207 57T213 61V578Z&quot; style=&quot;font-size: 23px;&quot;&gt;&lt;/path&gt;&lt;/defs&gt;&lt;g stroke=&quot;currentColor&quot; fill=&quot;currentColor&quot; stroke-width=&quot;0&quot; transform=&quot;scale(1,-1)&quot; style=&quot;font-size: 23px;&quot;&gt;&lt;g data-mml-node=&quot;math&quot; style=&quot;font-size: 23px;&quot;&gt;&lt;g data-mml-node=&quot;mstyle&quot; style=&quot;font-size: 23px;&quot;&gt;&lt;g data-mml-node=&quot;msup&quot; style=&quot;font-size: 23px;&quot;&gt;&lt;g data-mml-node=&quot;mi&quot; style=&quot;font-size: 23px;&quot;&gt;&lt;use data-c=&quot;1D467&quot; xlink:href=&quot;#MJX-2-TEX-I-1D467&quot; style=&quot;font-size: 23px;&quot;&gt;&lt;/use&gt;&lt;/g&gt;&lt;g data-mml-node=&quot;mrow&quot; transform=&quot;translate(498,413) scale(0.707)&quot; style=&quot;font-size: 23px;&quot;&gt;&lt;g data-mml-node=&quot;mo&quot; style=&quot;font-size: 23px;&quot;&gt;&lt;use data-c=&quot;2212&quot; xlink:href=&quot;#MJX-2-TEX-N-2212&quot; style=&quot;font-size: 23px;&quot;&gt;&lt;/use&gt;&lt;/g&gt;&lt;g data-mml-node=&quot;mn&quot; transform=&quot;translate(778,0)&quot; style=&quot;font-size: 23px;&quot;&gt;&lt;use data-c=&quot;31&quot; xlink:href=&quot;#MJX-2-TEX-N-31&quot; style=&quot;font-size: 23px;&quot;&gt;&lt;/use&gt;&lt;/g&gt;&lt;/g&gt;&lt;/g&gt;&lt;/g&gt;&lt;/g&gt;&lt;/g&gt;&lt;/svg&gt;" style="rounded=0;whiteSpace=wrap;html=1;fontSize=23;" parent="1" vertex="1">
          <mxGeometry x="180" y="290" width="120" height="60" as="geometry" />
        </mxCell>
        <mxCell id="7tWCwilZD6dlTuX6nUod-5" value="&lt;font face=&quot;math&quot; data-font-src=&quot;https://fonts.googleapis.com/css?family=math&quot; style=&quot;font-size: 23px;&quot;&gt;-2&lt;/font&gt;" style="triangle;whiteSpace=wrap;html=1;fontSize=23;align=center;direction=east;labelPosition=center;verticalLabelPosition=middle;verticalAlign=middle;spacing=2;" parent="1" vertex="1">
          <mxGeometry x="354" y="280" width="60" height="80" as="geometry" />
        </mxCell>
        <mxCell id="7tWCwilZD6dlTuX6nUod-6" value="&lt;font face=&quot;math&quot; data-font-src=&quot;https://fonts.googleapis.com/css?family=math&quot; style=&quot;font-size: 23px;&quot;&gt;-3&lt;/font&gt;" style="triangle;whiteSpace=wrap;html=1;fontSize=23;align=center;direction=east;labelPosition=center;verticalLabelPosition=middle;verticalAlign=middle;spacing=2;" parent="1" vertex="1">
          <mxGeometry x="354" y="400" width="60" height="80" as="geometry" />
        </mxCell>
        <mxCell id="7tWCwilZD6dlTuX6nUod-7" value="&lt;font face=&quot;math&quot; data-font-src=&quot;https://fonts.googleapis.com/css?family=math&quot; style=&quot;font-size: 23px;&quot;&gt;- 4&lt;/font&gt;" style="triangle;whiteSpace=wrap;html=1;fontSize=23;align=center;direction=east;labelPosition=center;verticalLabelPosition=middle;verticalAlign=middle;spacing=2;" parent="1" vertex="1">
          <mxGeometry x="354" y="515" width="60" height="80" as="geometry" />
        </mxCell>
        <mxCell id="7tWCwilZD6dlTuX6nUod-10" value="" style="endArrow=classic;html=1;rounded=0;exitX=1;exitY=0.5;exitDx=0;exitDy=0;entryX=0.5;entryY=1;entryDx=0;entryDy=0;" parent="1" source="7tWCwilZD6dlTuX6nUod-5" target="7tWCwilZD6dlTuX6nUod-1" edge="1">
          <mxGeometry width="50" height="50" relative="1" as="geometry">
            <mxPoint x="430" y="440" as="sourcePoint" />
            <mxPoint x="480" y="390" as="targetPoint" />
            <Array as="points">
              <mxPoint x="490" y="320" />
            </Array>
          </mxGeometry>
        </mxCell>
        <mxCell id="7tWCwilZD6dlTuX6nUod-11" value="" style="endArrow=classic;html=1;rounded=0;exitX=1;exitY=0.5;exitDx=0;exitDy=0;entryX=0.5;entryY=1;entryDx=0;entryDy=0;" parent="1" target="7tWCwilZD6dlTuX6nUod-1" edge="1">
          <mxGeometry width="50" height="50" relative="1" as="geometry">
            <mxPoint x="414" y="440" as="sourcePoint" />
            <mxPoint x="510" y="420" as="targetPoint" />
            <Array as="points">
              <mxPoint x="490" y="440" />
            </Array>
          </mxGeometry>
        </mxCell>
        <mxCell id="7tWCwilZD6dlTuX6nUod-12" value="" style="endArrow=classic;html=1;rounded=0;exitX=1;exitY=0.5;exitDx=0;exitDy=0;entryX=0.5;entryY=1;entryDx=0;entryDy=0;" parent="1" target="7tWCwilZD6dlTuX6nUod-1" edge="1" source="7tWCwilZD6dlTuX6nUod-7">
          <mxGeometry width="50" height="50" relative="1" as="geometry">
            <mxPoint x="414" y="550" as="sourcePoint" />
            <mxPoint x="510" y="410" as="targetPoint" />
            <Array as="points">
              <mxPoint x="490" y="555" />
            </Array>
          </mxGeometry>
        </mxCell>
        <mxCell id="7tWCwilZD6dlTuX6nUod-13" value="" style="endArrow=none;html=1;rounded=0;entryX=0;entryY=0.5;entryDx=0;entryDy=0;" parent="1" target="7tWCwilZD6dlTuX6nUod-1" edge="1">
          <mxGeometry width="50" height="50" relative="1" as="geometry">
            <mxPoint x="40" y="210" as="sourcePoint" />
            <mxPoint x="300" y="180" as="targetPoint" />
          </mxGeometry>
        </mxCell>
        <mxCell id="7tWCwilZD6dlTuX6nUod-14" value="" style="endArrow=classic;html=1;rounded=0;exitX=1;exitY=0.5;exitDx=0;exitDy=0;" parent="1" source="7tWCwilZD6dlTuX6nUod-1" target="7tWCwilZD6dlTuX6nUod-15" edge="1">
          <mxGeometry width="50" height="50" relative="1" as="geometry">
            <mxPoint x="470" y="230" as="sourcePoint" />
            <mxPoint x="750" y="210" as="targetPoint" />
          </mxGeometry>
        </mxCell>
        <mxCell id="7tWCwilZD6dlTuX6nUod-15" value="&lt;font face=&quot;math&quot; data-font-src=&quot;https://fonts.googleapis.com/css?family=math&quot; style=&quot;font-size: 23px;&quot;&gt;y(n)&lt;/font&gt;" style="text;html=1;align=center;verticalAlign=middle;whiteSpace=wrap;rounded=0;fontSize=23;" parent="1" vertex="1">
          <mxGeometry x="720" y="195" width="60" height="30" as="geometry" />
        </mxCell>
        <mxCell id="7tWCwilZD6dlTuX6nUod-16" value="&lt;font face=&quot;math&quot; style=&quot;font-size: 23px;&quot;&gt;x(n)&lt;/font&gt;" style="text;html=1;align=center;verticalAlign=middle;whiteSpace=wrap;rounded=0;fontSize=23;" parent="1" vertex="1">
          <mxGeometry x="40" y="170" width="60" height="30" as="geometry" />
        </mxCell>
        <mxCell id="ZwW-24FUMxzKvzEX-KJu-1" value="&lt;svg xmlns=&quot;http://www.w3.org/2000/svg&quot; width=&quot;3.284ex&quot; height=&quot;2.025ex&quot; role=&quot;img&quot; viewBox=&quot;0 -883.9 1451.7 894.9&quot; xmlns:xlink=&quot;http://www.w3.org/1999/xlink&quot; style=&quot;vertical-align: -0.025ex; font-size: 23px;&quot;&gt;&lt;defs style=&quot;font-size: 23px;&quot;&gt;&lt;path id=&quot;MJX-2-TEX-I-1D467&quot; d=&quot;M347 338Q337 338 294 349T231 360Q211 360 197 356T174 346T162 335T155 324L153 320Q150 317 138 317Q117 317 117 325Q117 330 120 339Q133 378 163 406T229 440Q241 442 246 442Q271 442 291 425T329 392T367 375Q389 375 411 408T434 441Q435 442 449 442H462Q468 436 468 434Q468 430 463 420T449 399T432 377T418 358L411 349Q368 298 275 214T160 106L148 94L163 93Q185 93 227 82T290 71Q328 71 360 90T402 140Q406 149 409 151T424 153Q443 153 443 143Q443 138 442 134Q425 72 376 31T278 -11Q252 -11 232 6T193 40T155 57Q111 57 76 -3Q70 -11 59 -11H54H41Q35 -5 35 -2Q35 13 93 84Q132 129 225 214T340 322Q352 338 347 338Z&quot; style=&quot;font-size: 23px;&quot;&gt;&lt;/path&gt;&lt;path id=&quot;MJX-2-TEX-N-2212&quot; d=&quot;M84 237T84 250T98 270H679Q694 262 694 250T679 230H98Q84 237 84 250Z&quot; style=&quot;font-size: 23px;&quot;&gt;&lt;/path&gt;&lt;path id=&quot;MJX-2-TEX-N-31&quot; d=&quot;M213 578L200 573Q186 568 160 563T102 556H83V602H102Q149 604 189 617T245 641T273 663Q275 666 285 666Q294 666 302 660V361L303 61Q310 54 315 52T339 48T401 46H427V0H416Q395 3 257 3Q121 3 100 0H88V46H114Q136 46 152 46T177 47T193 50T201 52T207 57T213 61V578Z&quot; style=&quot;font-size: 23px;&quot;&gt;&lt;/path&gt;&lt;/defs&gt;&lt;g stroke=&quot;currentColor&quot; fill=&quot;currentColor&quot; stroke-width=&quot;0&quot; transform=&quot;scale(1,-1)&quot; style=&quot;font-size: 23px;&quot;&gt;&lt;g data-mml-node=&quot;math&quot; style=&quot;font-size: 23px;&quot;&gt;&lt;g data-mml-node=&quot;mstyle&quot; style=&quot;font-size: 23px;&quot;&gt;&lt;g data-mml-node=&quot;msup&quot; style=&quot;font-size: 23px;&quot;&gt;&lt;g data-mml-node=&quot;mi&quot; style=&quot;font-size: 23px;&quot;&gt;&lt;use data-c=&quot;1D467&quot; xlink:href=&quot;#MJX-2-TEX-I-1D467&quot; style=&quot;font-size: 23px;&quot;&gt;&lt;/use&gt;&lt;/g&gt;&lt;g data-mml-node=&quot;mrow&quot; transform=&quot;translate(498,413) scale(0.707)&quot; style=&quot;font-size: 23px;&quot;&gt;&lt;g data-mml-node=&quot;mo&quot; style=&quot;font-size: 23px;&quot;&gt;&lt;use data-c=&quot;2212&quot; xlink:href=&quot;#MJX-2-TEX-N-2212&quot; style=&quot;font-size: 23px;&quot;&gt;&lt;/use&gt;&lt;/g&gt;&lt;g data-mml-node=&quot;mn&quot; transform=&quot;translate(778,0)&quot; style=&quot;font-size: 23px;&quot;&gt;&lt;use data-c=&quot;31&quot; xlink:href=&quot;#MJX-2-TEX-N-31&quot; style=&quot;font-size: 23px;&quot;&gt;&lt;/use&gt;&lt;/g&gt;&lt;/g&gt;&lt;/g&gt;&lt;/g&gt;&lt;/g&gt;&lt;/g&gt;&lt;/svg&gt;" style="rounded=0;whiteSpace=wrap;html=1;fontSize=23;" vertex="1" parent="1">
          <mxGeometry x="180" y="410" width="120" height="60" as="geometry" />
        </mxCell>
        <mxCell id="ZwW-24FUMxzKvzEX-KJu-2" style="edgeStyle=orthogonalEdgeStyle;rounded=0;orthogonalLoop=1;jettySize=auto;html=1;" edge="1" source="ZwW-24FUMxzKvzEX-KJu-1" parent="1">
          <mxGeometry relative="1" as="geometry">
            <mxPoint x="350" y="440" as="targetPoint" />
          </mxGeometry>
        </mxCell>
        <mxCell id="ZwW-24FUMxzKvzEX-KJu-3" value="&lt;svg xmlns=&quot;http://www.w3.org/2000/svg&quot; width=&quot;3.284ex&quot; height=&quot;2.025ex&quot; role=&quot;img&quot; viewBox=&quot;0 -883.9 1451.7 894.9&quot; xmlns:xlink=&quot;http://www.w3.org/1999/xlink&quot; style=&quot;vertical-align: -0.025ex; font-size: 23px;&quot;&gt;&lt;defs style=&quot;font-size: 23px;&quot;&gt;&lt;path id=&quot;MJX-2-TEX-I-1D467&quot; d=&quot;M347 338Q337 338 294 349T231 360Q211 360 197 356T174 346T162 335T155 324L153 320Q150 317 138 317Q117 317 117 325Q117 330 120 339Q133 378 163 406T229 440Q241 442 246 442Q271 442 291 425T329 392T367 375Q389 375 411 408T434 441Q435 442 449 442H462Q468 436 468 434Q468 430 463 420T449 399T432 377T418 358L411 349Q368 298 275 214T160 106L148 94L163 93Q185 93 227 82T290 71Q328 71 360 90T402 140Q406 149 409 151T424 153Q443 153 443 143Q443 138 442 134Q425 72 376 31T278 -11Q252 -11 232 6T193 40T155 57Q111 57 76 -3Q70 -11 59 -11H54H41Q35 -5 35 -2Q35 13 93 84Q132 129 225 214T340 322Q352 338 347 338Z&quot; style=&quot;font-size: 23px;&quot;&gt;&lt;/path&gt;&lt;path id=&quot;MJX-2-TEX-N-2212&quot; d=&quot;M84 237T84 250T98 270H679Q694 262 694 250T679 230H98Q84 237 84 250Z&quot; style=&quot;font-size: 23px;&quot;&gt;&lt;/path&gt;&lt;path id=&quot;MJX-2-TEX-N-31&quot; d=&quot;M213 578L200 573Q186 568 160 563T102 556H83V602H102Q149 604 189 617T245 641T273 663Q275 666 285 666Q294 666 302 660V361L303 61Q310 54 315 52T339 48T401 46H427V0H416Q395 3 257 3Q121 3 100 0H88V46H114Q136 46 152 46T177 47T193 50T201 52T207 57T213 61V578Z&quot; style=&quot;font-size: 23px;&quot;&gt;&lt;/path&gt;&lt;/defs&gt;&lt;g stroke=&quot;currentColor&quot; fill=&quot;currentColor&quot; stroke-width=&quot;0&quot; transform=&quot;scale(1,-1)&quot; style=&quot;font-size: 23px;&quot;&gt;&lt;g data-mml-node=&quot;math&quot; style=&quot;font-size: 23px;&quot;&gt;&lt;g data-mml-node=&quot;mstyle&quot; style=&quot;font-size: 23px;&quot;&gt;&lt;g data-mml-node=&quot;msup&quot; style=&quot;font-size: 23px;&quot;&gt;&lt;g data-mml-node=&quot;mi&quot; style=&quot;font-size: 23px;&quot;&gt;&lt;use data-c=&quot;1D467&quot; xlink:href=&quot;#MJX-2-TEX-I-1D467&quot; style=&quot;font-size: 23px;&quot;&gt;&lt;/use&gt;&lt;/g&gt;&lt;g data-mml-node=&quot;mrow&quot; transform=&quot;translate(498,413) scale(0.707)&quot; style=&quot;font-size: 23px;&quot;&gt;&lt;g data-mml-node=&quot;mo&quot; style=&quot;font-size: 23px;&quot;&gt;&lt;use data-c=&quot;2212&quot; xlink:href=&quot;#MJX-2-TEX-N-2212&quot; style=&quot;font-size: 23px;&quot;&gt;&lt;/use&gt;&lt;/g&gt;&lt;g data-mml-node=&quot;mn&quot; transform=&quot;translate(778,0)&quot; style=&quot;font-size: 23px;&quot;&gt;&lt;use data-c=&quot;31&quot; xlink:href=&quot;#MJX-2-TEX-N-31&quot; style=&quot;font-size: 23px;&quot;&gt;&lt;/use&gt;&lt;/g&gt;&lt;/g&gt;&lt;/g&gt;&lt;/g&gt;&lt;/g&gt;&lt;/g&gt;&lt;/svg&gt;" style="rounded=0;whiteSpace=wrap;html=1;fontSize=23;" vertex="1" parent="1">
          <mxGeometry x="184" y="525" width="120" height="60" as="geometry" />
        </mxCell>
        <mxCell id="ZwW-24FUMxzKvzEX-KJu-4" style="edgeStyle=orthogonalEdgeStyle;rounded=0;orthogonalLoop=1;jettySize=auto;html=1;" edge="1" source="ZwW-24FUMxzKvzEX-KJu-3" parent="1">
          <mxGeometry relative="1" as="geometry">
            <mxPoint x="354" y="555" as="targetPoint" />
          </mxGeometry>
        </mxCell>
        <mxCell id="ZwW-24FUMxzKvzEX-KJu-6" value="" style="endArrow=classic;html=1;rounded=0;entryX=0.5;entryY=0;entryDx=0;entryDy=0;" edge="1" parent="1" target="7tWCwilZD6dlTuX6nUod-2">
          <mxGeometry width="50" height="50" relative="1" as="geometry">
            <mxPoint x="240" y="210" as="sourcePoint" />
            <mxPoint x="270" y="270" as="targetPoint" />
          </mxGeometry>
        </mxCell>
        <mxCell id="ZwW-24FUMxzKvzEX-KJu-7" value="" style="endArrow=classic;html=1;rounded=0;entryX=0.5;entryY=0;entryDx=0;entryDy=0;" edge="1" parent="1">
          <mxGeometry width="50" height="50" relative="1" as="geometry">
            <mxPoint x="240" y="350" as="sourcePoint" />
            <mxPoint x="239.72" y="410" as="targetPoint" />
          </mxGeometry>
        </mxCell>
        <mxCell id="ZwW-24FUMxzKvzEX-KJu-8" value="" style="endArrow=classic;html=1;rounded=0;entryX=0.5;entryY=0;entryDx=0;entryDy=0;" edge="1" parent="1">
          <mxGeometry width="50" height="50" relative="1" as="geometry">
            <mxPoint x="240" y="470" as="sourcePoint" />
            <mxPoint x="239.72" y="525" as="targetPoint" />
          </mxGeometry>
        </mxCell>
        <mxCell id="ZwW-24FUMxzKvzEX-KJu-9" value="`u_0(n)`" style="text;html=1;align=center;verticalAlign=middle;whiteSpace=wrap;rounded=0;" vertex="1" parent="1">
          <mxGeometry x="184" y="240" width="40" height="30" as="geometry" />
        </mxCell>
        <mxCell id="ZwW-24FUMxzKvzEX-KJu-12" value="`u_1(n)`" style="text;html=1;align=center;verticalAlign=middle;whiteSpace=wrap;rounded=0;" vertex="1" parent="1">
          <mxGeometry x="184" y="360" width="40" height="30" as="geometry" />
        </mxCell>
        <mxCell id="ZwW-24FUMxzKvzEX-KJu-13" value="`u_2(n)`" style="text;html=1;align=center;verticalAlign=middle;whiteSpace=wrap;rounded=0;" vertex="1" parent="1">
          <mxGeometry x="184" y="480" width="40" height="30" as="geometry" />
        </mxCell>
        <mxCell id="ZwW-24FUMxzKvzEX-KJu-15" value="&lt;font style=&quot;font-size: 36px;&quot;&gt;+&lt;/font&gt;" style="ellipse;whiteSpace=wrap;html=1;aspect=fixed;" vertex="1" parent="1">
          <mxGeometry x="500" y="660" width="80" height="80" as="geometry" />
        </mxCell>
        <mxCell id="ZwW-24FUMxzKvzEX-KJu-16" style="edgeStyle=orthogonalEdgeStyle;rounded=0;orthogonalLoop=1;jettySize=auto;html=1;" edge="1" source="ZwW-24FUMxzKvzEX-KJu-17" parent="1">
          <mxGeometry relative="1" as="geometry">
            <mxPoint x="340" y="810" as="targetPoint" />
          </mxGeometry>
        </mxCell>
        <mxCell id="ZwW-24FUMxzKvzEX-KJu-17" value="&lt;svg xmlns=&quot;http://www.w3.org/2000/svg&quot; width=&quot;3.284ex&quot; height=&quot;2.025ex&quot; role=&quot;img&quot; viewBox=&quot;0 -883.9 1451.7 894.9&quot; xmlns:xlink=&quot;http://www.w3.org/1999/xlink&quot; style=&quot;vertical-align: -0.025ex; font-size: 23px;&quot;&gt;&lt;defs style=&quot;font-size: 23px;&quot;&gt;&lt;path id=&quot;MJX-2-TEX-I-1D467&quot; d=&quot;M347 338Q337 338 294 349T231 360Q211 360 197 356T174 346T162 335T155 324L153 320Q150 317 138 317Q117 317 117 325Q117 330 120 339Q133 378 163 406T229 440Q241 442 246 442Q271 442 291 425T329 392T367 375Q389 375 411 408T434 441Q435 442 449 442H462Q468 436 468 434Q468 430 463 420T449 399T432 377T418 358L411 349Q368 298 275 214T160 106L148 94L163 93Q185 93 227 82T290 71Q328 71 360 90T402 140Q406 149 409 151T424 153Q443 153 443 143Q443 138 442 134Q425 72 376 31T278 -11Q252 -11 232 6T193 40T155 57Q111 57 76 -3Q70 -11 59 -11H54H41Q35 -5 35 -2Q35 13 93 84Q132 129 225 214T340 322Q352 338 347 338Z&quot; style=&quot;font-size: 23px;&quot;&gt;&lt;/path&gt;&lt;path id=&quot;MJX-2-TEX-N-2212&quot; d=&quot;M84 237T84 250T98 270H679Q694 262 694 250T679 230H98Q84 237 84 250Z&quot; style=&quot;font-size: 23px;&quot;&gt;&lt;/path&gt;&lt;path id=&quot;MJX-2-TEX-N-31&quot; d=&quot;M213 578L200 573Q186 568 160 563T102 556H83V602H102Q149 604 189 617T245 641T273 663Q275 666 285 666Q294 666 302 660V361L303 61Q310 54 315 52T339 48T401 46H427V0H416Q395 3 257 3Q121 3 100 0H88V46H114Q136 46 152 46T177 47T193 50T201 52T207 57T213 61V578Z&quot; style=&quot;font-size: 23px;&quot;&gt;&lt;/path&gt;&lt;/defs&gt;&lt;g stroke=&quot;currentColor&quot; fill=&quot;currentColor&quot; stroke-width=&quot;0&quot; transform=&quot;scale(1,-1)&quot; style=&quot;font-size: 23px;&quot;&gt;&lt;g data-mml-node=&quot;math&quot; style=&quot;font-size: 23px;&quot;&gt;&lt;g data-mml-node=&quot;mstyle&quot; style=&quot;font-size: 23px;&quot;&gt;&lt;g data-mml-node=&quot;msup&quot; style=&quot;font-size: 23px;&quot;&gt;&lt;g data-mml-node=&quot;mi&quot; style=&quot;font-size: 23px;&quot;&gt;&lt;use data-c=&quot;1D467&quot; xlink:href=&quot;#MJX-2-TEX-I-1D467&quot; style=&quot;font-size: 23px;&quot;&gt;&lt;/use&gt;&lt;/g&gt;&lt;g data-mml-node=&quot;mrow&quot; transform=&quot;translate(498,413) scale(0.707)&quot; style=&quot;font-size: 23px;&quot;&gt;&lt;g data-mml-node=&quot;mo&quot; style=&quot;font-size: 23px;&quot;&gt;&lt;use data-c=&quot;2212&quot; xlink:href=&quot;#MJX-2-TEX-N-2212&quot; style=&quot;font-size: 23px;&quot;&gt;&lt;/use&gt;&lt;/g&gt;&lt;g data-mml-node=&quot;mn&quot; transform=&quot;translate(778,0)&quot; style=&quot;font-size: 23px;&quot;&gt;&lt;use data-c=&quot;31&quot; xlink:href=&quot;#MJX-2-TEX-N-31&quot; style=&quot;font-size: 23px;&quot;&gt;&lt;/use&gt;&lt;/g&gt;&lt;/g&gt;&lt;/g&gt;&lt;/g&gt;&lt;/g&gt;&lt;/g&gt;&lt;/svg&gt;" style="rounded=0;whiteSpace=wrap;html=1;fontSize=23;" vertex="1" parent="1">
          <mxGeometry x="170" y="780" width="120" height="60" as="geometry" />
        </mxCell>
        <mxCell id="ZwW-24FUMxzKvzEX-KJu-18" value="&lt;font face=&quot;math&quot; data-font-src=&quot;https://fonts.googleapis.com/css?family=math&quot; style=&quot;font-size: 23px;&quot;&gt;-2&lt;/font&gt;" style="triangle;whiteSpace=wrap;html=1;fontSize=23;align=center;direction=east;labelPosition=center;verticalLabelPosition=middle;verticalAlign=middle;spacing=2;" vertex="1" parent="1">
          <mxGeometry x="344" y="770" width="60" height="80" as="geometry" />
        </mxCell>
        <mxCell id="ZwW-24FUMxzKvzEX-KJu-19" value="&lt;font face=&quot;math&quot; data-font-src=&quot;https://fonts.googleapis.com/css?family=math&quot; style=&quot;font-size: 23px;&quot;&gt;-3&lt;/font&gt;" style="triangle;whiteSpace=wrap;html=1;fontSize=23;align=center;direction=east;labelPosition=center;verticalLabelPosition=middle;verticalAlign=middle;spacing=2;" vertex="1" parent="1">
          <mxGeometry x="344" y="890" width="60" height="80" as="geometry" />
        </mxCell>
        <mxCell id="ZwW-24FUMxzKvzEX-KJu-20" value="&lt;font face=&quot;math&quot; data-font-src=&quot;https://fonts.googleapis.com/css?family=math&quot; style=&quot;font-size: 23px;&quot;&gt;- 4&lt;/font&gt;" style="triangle;whiteSpace=wrap;html=1;fontSize=23;align=center;direction=east;labelPosition=center;verticalLabelPosition=middle;verticalAlign=middle;spacing=2;" vertex="1" parent="1">
          <mxGeometry x="344" y="1005" width="60" height="80" as="geometry" />
        </mxCell>
        <mxCell id="ZwW-24FUMxzKvzEX-KJu-21" value="" style="endArrow=classic;html=1;rounded=0;exitX=1;exitY=0.5;exitDx=0;exitDy=0;entryX=0.5;entryY=1;entryDx=0;entryDy=0;" edge="1" source="ZwW-24FUMxzKvzEX-KJu-18" target="ZwW-24FUMxzKvzEX-KJu-15" parent="1">
          <mxGeometry width="50" height="50" relative="1" as="geometry">
            <mxPoint x="420" y="930" as="sourcePoint" />
            <mxPoint x="470" y="880" as="targetPoint" />
            <Array as="points">
              <mxPoint x="480" y="810" />
            </Array>
          </mxGeometry>
        </mxCell>
        <mxCell id="ZwW-24FUMxzKvzEX-KJu-22" value="" style="endArrow=classic;html=1;rounded=0;exitX=1;exitY=0.5;exitDx=0;exitDy=0;entryX=0.5;entryY=1;entryDx=0;entryDy=0;" edge="1" target="ZwW-24FUMxzKvzEX-KJu-15" parent="1">
          <mxGeometry width="50" height="50" relative="1" as="geometry">
            <mxPoint x="404" y="930" as="sourcePoint" />
            <mxPoint x="500" y="910" as="targetPoint" />
            <Array as="points">
              <mxPoint x="480" y="930" />
            </Array>
          </mxGeometry>
        </mxCell>
        <mxCell id="ZwW-24FUMxzKvzEX-KJu-23" value="" style="endArrow=classic;html=1;rounded=0;exitX=1;exitY=0.5;exitDx=0;exitDy=0;entryX=0.5;entryY=1;entryDx=0;entryDy=0;" edge="1" source="ZwW-24FUMxzKvzEX-KJu-20" target="ZwW-24FUMxzKvzEX-KJu-15" parent="1">
          <mxGeometry width="50" height="50" relative="1" as="geometry">
            <mxPoint x="404" y="1040" as="sourcePoint" />
            <mxPoint x="500" y="900" as="targetPoint" />
            <Array as="points">
              <mxPoint x="480" y="1045" />
            </Array>
          </mxGeometry>
        </mxCell>
        <mxCell id="ZwW-24FUMxzKvzEX-KJu-24" value="" style="endArrow=none;html=1;rounded=0;entryX=0;entryY=0.5;entryDx=0;entryDy=0;" edge="1" target="ZwW-24FUMxzKvzEX-KJu-15" parent="1">
          <mxGeometry width="50" height="50" relative="1" as="geometry">
            <mxPoint x="30" y="700" as="sourcePoint" />
            <mxPoint x="290" y="670" as="targetPoint" />
          </mxGeometry>
        </mxCell>
        <mxCell id="ZwW-24FUMxzKvzEX-KJu-25" value="" style="endArrow=classic;html=1;rounded=0;exitX=1;exitY=0.5;exitDx=0;exitDy=0;" edge="1" source="ZwW-24FUMxzKvzEX-KJu-15" target="ZwW-24FUMxzKvzEX-KJu-26" parent="1">
          <mxGeometry width="50" height="50" relative="1" as="geometry">
            <mxPoint x="460" y="720" as="sourcePoint" />
            <mxPoint x="740" y="700" as="targetPoint" />
          </mxGeometry>
        </mxCell>
        <mxCell id="ZwW-24FUMxzKvzEX-KJu-26" value="&lt;font face=&quot;math&quot; data-font-src=&quot;https://fonts.googleapis.com/css?family=math&quot; style=&quot;font-size: 23px;&quot;&gt;y(n)&lt;/font&gt;" style="text;html=1;align=center;verticalAlign=middle;whiteSpace=wrap;rounded=0;fontSize=23;" vertex="1" parent="1">
          <mxGeometry x="710" y="685" width="60" height="30" as="geometry" />
        </mxCell>
        <mxCell id="ZwW-24FUMxzKvzEX-KJu-27" value="&lt;font face=&quot;math&quot; style=&quot;font-size: 23px;&quot;&gt;x(n)&lt;/font&gt;" style="text;html=1;align=center;verticalAlign=middle;whiteSpace=wrap;rounded=0;fontSize=23;" vertex="1" parent="1">
          <mxGeometry x="30" y="660" width="60" height="30" as="geometry" />
        </mxCell>
        <mxCell id="ZwW-24FUMxzKvzEX-KJu-28" value="&lt;svg xmlns=&quot;http://www.w3.org/2000/svg&quot; width=&quot;3.284ex&quot; height=&quot;2.025ex&quot; role=&quot;img&quot; viewBox=&quot;0 -883.9 1451.7 894.9&quot; xmlns:xlink=&quot;http://www.w3.org/1999/xlink&quot; style=&quot;vertical-align: -0.025ex; font-size: 23px;&quot;&gt;&lt;defs style=&quot;font-size: 23px;&quot;&gt;&lt;path id=&quot;MJX-2-TEX-I-1D467&quot; d=&quot;M347 338Q337 338 294 349T231 360Q211 360 197 356T174 346T162 335T155 324L153 320Q150 317 138 317Q117 317 117 325Q117 330 120 339Q133 378 163 406T229 440Q241 442 246 442Q271 442 291 425T329 392T367 375Q389 375 411 408T434 441Q435 442 449 442H462Q468 436 468 434Q468 430 463 420T449 399T432 377T418 358L411 349Q368 298 275 214T160 106L148 94L163 93Q185 93 227 82T290 71Q328 71 360 90T402 140Q406 149 409 151T424 153Q443 153 443 143Q443 138 442 134Q425 72 376 31T278 -11Q252 -11 232 6T193 40T155 57Q111 57 76 -3Q70 -11 59 -11H54H41Q35 -5 35 -2Q35 13 93 84Q132 129 225 214T340 322Q352 338 347 338Z&quot; style=&quot;font-size: 23px;&quot;&gt;&lt;/path&gt;&lt;path id=&quot;MJX-2-TEX-N-2212&quot; d=&quot;M84 237T84 250T98 270H679Q694 262 694 250T679 230H98Q84 237 84 250Z&quot; style=&quot;font-size: 23px;&quot;&gt;&lt;/path&gt;&lt;path id=&quot;MJX-2-TEX-N-31&quot; d=&quot;M213 578L200 573Q186 568 160 563T102 556H83V602H102Q149 604 189 617T245 641T273 663Q275 666 285 666Q294 666 302 660V361L303 61Q310 54 315 52T339 48T401 46H427V0H416Q395 3 257 3Q121 3 100 0H88V46H114Q136 46 152 46T177 47T193 50T201 52T207 57T213 61V578Z&quot; style=&quot;font-size: 23px;&quot;&gt;&lt;/path&gt;&lt;/defs&gt;&lt;g stroke=&quot;currentColor&quot; fill=&quot;currentColor&quot; stroke-width=&quot;0&quot; transform=&quot;scale(1,-1)&quot; style=&quot;font-size: 23px;&quot;&gt;&lt;g data-mml-node=&quot;math&quot; style=&quot;font-size: 23px;&quot;&gt;&lt;g data-mml-node=&quot;mstyle&quot; style=&quot;font-size: 23px;&quot;&gt;&lt;g data-mml-node=&quot;msup&quot; style=&quot;font-size: 23px;&quot;&gt;&lt;g data-mml-node=&quot;mi&quot; style=&quot;font-size: 23px;&quot;&gt;&lt;use data-c=&quot;1D467&quot; xlink:href=&quot;#MJX-2-TEX-I-1D467&quot; style=&quot;font-size: 23px;&quot;&gt;&lt;/use&gt;&lt;/g&gt;&lt;g data-mml-node=&quot;mrow&quot; transform=&quot;translate(498,413) scale(0.707)&quot; style=&quot;font-size: 23px;&quot;&gt;&lt;g data-mml-node=&quot;mo&quot; style=&quot;font-size: 23px;&quot;&gt;&lt;use data-c=&quot;2212&quot; xlink:href=&quot;#MJX-2-TEX-N-2212&quot; style=&quot;font-size: 23px;&quot;&gt;&lt;/use&gt;&lt;/g&gt;&lt;g data-mml-node=&quot;mn&quot; transform=&quot;translate(778,0)&quot; style=&quot;font-size: 23px;&quot;&gt;&lt;use data-c=&quot;31&quot; xlink:href=&quot;#MJX-2-TEX-N-31&quot; style=&quot;font-size: 23px;&quot;&gt;&lt;/use&gt;&lt;/g&gt;&lt;/g&gt;&lt;/g&gt;&lt;/g&gt;&lt;/g&gt;&lt;/g&gt;&lt;/svg&gt;" style="rounded=0;whiteSpace=wrap;html=1;fontSize=23;" vertex="1" parent="1">
          <mxGeometry x="170" y="900" width="120" height="60" as="geometry" />
        </mxCell>
        <mxCell id="ZwW-24FUMxzKvzEX-KJu-29" style="edgeStyle=orthogonalEdgeStyle;rounded=0;orthogonalLoop=1;jettySize=auto;html=1;" edge="1" source="ZwW-24FUMxzKvzEX-KJu-28" parent="1">
          <mxGeometry relative="1" as="geometry">
            <mxPoint x="340" y="930" as="targetPoint" />
          </mxGeometry>
        </mxCell>
        <mxCell id="ZwW-24FUMxzKvzEX-KJu-30" value="&lt;svg xmlns=&quot;http://www.w3.org/2000/svg&quot; width=&quot;3.284ex&quot; height=&quot;2.025ex&quot; role=&quot;img&quot; viewBox=&quot;0 -883.9 1451.7 894.9&quot; xmlns:xlink=&quot;http://www.w3.org/1999/xlink&quot; style=&quot;vertical-align: -0.025ex; font-size: 23px;&quot;&gt;&lt;defs style=&quot;font-size: 23px;&quot;&gt;&lt;path id=&quot;MJX-2-TEX-I-1D467&quot; d=&quot;M347 338Q337 338 294 349T231 360Q211 360 197 356T174 346T162 335T155 324L153 320Q150 317 138 317Q117 317 117 325Q117 330 120 339Q133 378 163 406T229 440Q241 442 246 442Q271 442 291 425T329 392T367 375Q389 375 411 408T434 441Q435 442 449 442H462Q468 436 468 434Q468 430 463 420T449 399T432 377T418 358L411 349Q368 298 275 214T160 106L148 94L163 93Q185 93 227 82T290 71Q328 71 360 90T402 140Q406 149 409 151T424 153Q443 153 443 143Q443 138 442 134Q425 72 376 31T278 -11Q252 -11 232 6T193 40T155 57Q111 57 76 -3Q70 -11 59 -11H54H41Q35 -5 35 -2Q35 13 93 84Q132 129 225 214T340 322Q352 338 347 338Z&quot; style=&quot;font-size: 23px;&quot;&gt;&lt;/path&gt;&lt;path id=&quot;MJX-2-TEX-N-2212&quot; d=&quot;M84 237T84 250T98 270H679Q694 262 694 250T679 230H98Q84 237 84 250Z&quot; style=&quot;font-size: 23px;&quot;&gt;&lt;/path&gt;&lt;path id=&quot;MJX-2-TEX-N-31&quot; d=&quot;M213 578L200 573Q186 568 160 563T102 556H83V602H102Q149 604 189 617T245 641T273 663Q275 666 285 666Q294 666 302 660V361L303 61Q310 54 315 52T339 48T401 46H427V0H416Q395 3 257 3Q121 3 100 0H88V46H114Q136 46 152 46T177 47T193 50T201 52T207 57T213 61V578Z&quot; style=&quot;font-size: 23px;&quot;&gt;&lt;/path&gt;&lt;/defs&gt;&lt;g stroke=&quot;currentColor&quot; fill=&quot;currentColor&quot; stroke-width=&quot;0&quot; transform=&quot;scale(1,-1)&quot; style=&quot;font-size: 23px;&quot;&gt;&lt;g data-mml-node=&quot;math&quot; style=&quot;font-size: 23px;&quot;&gt;&lt;g data-mml-node=&quot;mstyle&quot; style=&quot;font-size: 23px;&quot;&gt;&lt;g data-mml-node=&quot;msup&quot; style=&quot;font-size: 23px;&quot;&gt;&lt;g data-mml-node=&quot;mi&quot; style=&quot;font-size: 23px;&quot;&gt;&lt;use data-c=&quot;1D467&quot; xlink:href=&quot;#MJX-2-TEX-I-1D467&quot; style=&quot;font-size: 23px;&quot;&gt;&lt;/use&gt;&lt;/g&gt;&lt;g data-mml-node=&quot;mrow&quot; transform=&quot;translate(498,413) scale(0.707)&quot; style=&quot;font-size: 23px;&quot;&gt;&lt;g data-mml-node=&quot;mo&quot; style=&quot;font-size: 23px;&quot;&gt;&lt;use data-c=&quot;2212&quot; xlink:href=&quot;#MJX-2-TEX-N-2212&quot; style=&quot;font-size: 23px;&quot;&gt;&lt;/use&gt;&lt;/g&gt;&lt;g data-mml-node=&quot;mn&quot; transform=&quot;translate(778,0)&quot; style=&quot;font-size: 23px;&quot;&gt;&lt;use data-c=&quot;31&quot; xlink:href=&quot;#MJX-2-TEX-N-31&quot; style=&quot;font-size: 23px;&quot;&gt;&lt;/use&gt;&lt;/g&gt;&lt;/g&gt;&lt;/g&gt;&lt;/g&gt;&lt;/g&gt;&lt;/g&gt;&lt;/svg&gt;" style="rounded=0;whiteSpace=wrap;html=1;fontSize=23;" vertex="1" parent="1">
          <mxGeometry x="174" y="1015" width="120" height="60" as="geometry" />
        </mxCell>
        <mxCell id="ZwW-24FUMxzKvzEX-KJu-31" style="edgeStyle=orthogonalEdgeStyle;rounded=0;orthogonalLoop=1;jettySize=auto;html=1;" edge="1" source="ZwW-24FUMxzKvzEX-KJu-30" parent="1">
          <mxGeometry relative="1" as="geometry">
            <mxPoint x="344" y="1045" as="targetPoint" />
          </mxGeometry>
        </mxCell>
        <mxCell id="ZwW-24FUMxzKvzEX-KJu-32" value="" style="endArrow=classic;html=1;rounded=0;entryX=0.5;entryY=0;entryDx=0;entryDy=0;" edge="1" target="ZwW-24FUMxzKvzEX-KJu-17" parent="1">
          <mxGeometry width="50" height="50" relative="1" as="geometry">
            <mxPoint x="230" y="700" as="sourcePoint" />
            <mxPoint x="260" y="760" as="targetPoint" />
          </mxGeometry>
        </mxCell>
        <mxCell id="ZwW-24FUMxzKvzEX-KJu-33" value="" style="endArrow=classic;html=1;rounded=0;entryX=0.5;entryY=0;entryDx=0;entryDy=0;" edge="1" parent="1">
          <mxGeometry width="50" height="50" relative="1" as="geometry">
            <mxPoint x="230" y="840" as="sourcePoint" />
            <mxPoint x="229.72" y="900" as="targetPoint" />
          </mxGeometry>
        </mxCell>
        <mxCell id="ZwW-24FUMxzKvzEX-KJu-34" value="" style="endArrow=classic;html=1;rounded=0;entryX=0.5;entryY=0;entryDx=0;entryDy=0;" edge="1" parent="1">
          <mxGeometry width="50" height="50" relative="1" as="geometry">
            <mxPoint x="230" y="960" as="sourcePoint" />
            <mxPoint x="229.72" y="1015" as="targetPoint" />
          </mxGeometry>
        </mxCell>
      </root>
    </mxGraphModel>
  </diagram>
</mxfile>
